<?xml version="1.0" encoding="UTF-8"?>
<svg xmlns="http://www.w3.org/2000/svg" xmlns:xlink="http://www.w3.org/1999/xlink" width="11px" height="13px" viewBox="0 0 11 12" version="1.1">
<g id="surface1">
<path style=" fill: #fff" d="M 6.679688 7.125 L 4.320312 7.125 C 1.933594 7.125 0 8.972656 0 11.25 C 0 11.664062 0.351562 12 0.785156 12 L 10.214844 12 C 10.648438 12 11 11.664062 11 11.25 C 11 8.972656 9.066406 7.125 6.679688 7.125 Z M 1.203125 10.875 C 1.398438 9.394531 2.71875 8.25 4.320312 8.25 L 6.679688 8.25 C 8.277344 8.25 9.601562 9.398438 9.796875 10.875 Z M 5.5 6 C 7.234375 6 8.644531 4.65625 8.644531 3 C 8.644531 1.34375 7.234375 0 5.5 0 C 3.765625 0 2.355469 1.34375 2.355469 3 C 2.355469 4.65625 3.765625 6 5.5 6 Z M 5.5 1.125 C 6.582031 1.125 7.464844 1.964844 7.464844 3 C 7.464844 4.035156 6.582031 4.875 5.5 4.875 C 4.417969 4.875 3.535156 4.035156 3.535156 3 C 3.535156 1.964844 4.417969 1.125 5.5 1.125 Z M 5.5 1.125 "/>
</g>
</svg>
