<?xml version="1.0" encoding="UTF-8"?>
<svg xmlns="http://www.w3.org/2000/svg" xmlns:xlink="http://www.w3.org/1999/xlink" width="15px" height="13px" viewBox="0 0 15 13" version="1.1">
<g id="surface1">
<path style=" stroke:none;fill-rule:nonzero;fill:#516278;fill-opacity:1;" d="M 14.683594 7.074219 L 9.328125 11.136719 C 9.121094 11.296875 8.847656 11.375 8.570312 11.375 C 8.296875 11.375 8.023438 11.296875 7.8125 11.136719 C 7.394531 10.820312 7.394531 10.304688 7.8125 9.988281 L 11.34375 7.3125 L 1.070312 7.3125 C 0.480469 7.3125 0 6.949219 0 6.5 C 0 6.050781 0.480469 5.6875 1.070312 5.6875 L 11.34375 5.6875 L 7.816406 3.011719 C 7.394531 2.695312 7.394531 2.179688 7.816406 1.863281 C 8.234375 1.546875 8.910156 1.546875 9.328125 1.863281 L 14.6875 5.925781 C 15.105469 6.242188 15.105469 6.757812 14.683594 7.074219 Z M 14.683594 7.074219 "/>
</g>
</svg>
